<?xml version="1.0" standalone="no"?>
<!DOCTYPE svg PUBLIC "-//W3C//DTD SVG 1.1//EN" "http://www.w3.org/Graphics/SVG/1.1/DTD/svg11.dtd">
<svg width="2970.0" height="2100.0" version="1.1" xmlns="http://www.w3.org/2000/svg">

<polyline fill="rgb(255, 215, 0)" stroke="rgb(127, 127, 127)" stroke-width="2.1417" stroke-linejoin="round" stroke-dasharray="" opacity="0.5" points="1481.8500000000001,924.46 1482.71,917.9200000000001 1485.24,911.83 1489.25,906.59 1494.49,902.58 1500.58,900.0500000000001 1507.1200000000001,899.19 1507.1200000000001,899.19 2099.09,899.19 2099.09,899.19 2105.63,900.0500000000001 2111.73,902.58 2116.96,906.59 2120.9700000000003,911.83 2123.5,917.9200000000001 2124.36,924.46 2124.36,924.46 2124.36,1379.41 2124.36,1379.41 2123.5,1385.95 2120.9700000000003,1392.05 2116.96,1397.28 2111.73,1401.29 2105.63,1403.82 2099.09,1404.68 2099.09,1404.68 1507.1200000000001,1404.68 1507.1200000000001,1404.68 1500.58,1403.82 1494.49,1401.29 1489.25,1397.28 1485.24,1392.05 1482.71,1385.95 1481.8500000000001,1379.41 1481.8500000000001,924.46 1481.8500000000001,924.46 "/>
<text x="1803" y="1152" text-anchor="middle" font-family="Arial" font-size="21.416999999999998" font-style="italic"> gr740_stream_aligner
</text>
<polyline fill="none" stroke="rgb(0, 0, 0)" stroke-width="1" stroke-linejoin="round" stroke-dasharray="" opacity="1.0" points="1280.8700000000001,877.96 1381.3600000000001,877.96 1381.3600000000001,979.51 1481.8500000000001,979.51 "/>
<polyline fill="rgb(0, 0, 255)" stroke="rgb(21, 96, 189)" stroke-width="1" stroke-linejoin="round" stroke-dasharray="" opacity="1.0" points="1481.8500000000001,979.51 1465.78725,971.4786249999999 1465.78725,987.5413750000001 1481.8500000000001,979.51 "/>
<text x="1481.8500000000001" y="979.51" text-anchor="start" font-family="Arial" font-size="21.416999999999998" font-style=""> A
</text>
<polyline fill="none" stroke="rgb(0, 0, 0)" stroke-width="1.6564333333333334" stroke-linejoin="round" stroke-dasharray="" opacity="1.0" points="984.9200000000001,1430.75 1233.38,1430.75 1233.38,1281.92 1481.8500000000001,1281.92 "/>
<polyline fill="rgb(0, 0, 255)" stroke="rgb(21, 96, 189)" stroke-width="1" stroke-linejoin="round" stroke-dasharray="" opacity="1.0" points="1481.8500000000001,1281.92 1465.78725,1273.8886249999998 1465.78725,1289.951375 1481.8500000000001,1281.92 "/>
<text x="1481.8500000000001" y="1281.92" text-anchor="start" font-family="Arial" font-size="21.416999999999998" font-style=""> B
</text>
<polyline fill="none" stroke="rgb(0, 0, 0)" stroke-width="1" stroke-linejoin="round" stroke-dasharray="" opacity="1.0" points="2124.36,979.57 2231.43,979.57 2231.43,1118.09 2338.51,1118.09 "/>
<polyline fill="rgb(0, 0, 255)" stroke="rgb(21, 96, 189)" stroke-width="1" stroke-linejoin="round" stroke-dasharray="" opacity="1.0" points="2124.36,979.57 2124.36,987.6013750000002 2140.42275,979.57 2124.36,971.5386249999999 2124.36,979.57 "/>
<text x="2124.36" y="979.57" text-anchor="end" font-family="Arial" font-size="21.416999999999998" font-style=""> aligned_A
</text>
<polyline fill="none" stroke="rgb(0, 0, 0)" stroke-width="1" stroke-linejoin="round" stroke-dasharray="" opacity="1.0" points="2124.36,1277.19 2231.43,1277.19 2231.43,1181.1000000000001 2338.51,1181.1000000000001 "/>
<polyline fill="rgb(0, 0, 255)" stroke="rgb(21, 96, 189)" stroke-width="1" stroke-linejoin="round" stroke-dasharray="" opacity="1.0" points="2124.36,1277.19 2124.36,1285.221375 2140.42275,1277.19 2124.36,1269.1586249999998 2124.36,1277.19 "/>
<text x="2124.36" y="1277.19" text-anchor="end" font-family="Arial" font-size="21.416999999999998" font-style=""> aligned_B
</text>
<polyline fill="rgb(255, 215, 0)" stroke="rgb(127, 127, 127)" stroke-width="1" stroke-linejoin="round" stroke-dasharray="" opacity="0.5" points="554.52,673.29 554.95,670.03 556.21,666.99 558.21,664.38 560.82,662.38 563.86,661.12 567.12,660.69 567.12,660.69 819.08,660.69 819.08,660.69 822.34,661.12 825.38,662.38 827.99,664.38 829.99,666.99 831.25,670.03 831.6800000000001,673.29 831.6800000000001,673.29 831.6800000000001,900.0500000000001 831.6800000000001,900.0500000000001 831.25,903.3100000000001 829.99,906.35 827.99,908.96 825.38,910.96 822.34,912.22 819.08,912.65 819.08,912.65 567.12,912.65 567.12,912.65 563.86,912.22 560.82,910.96 558.21,908.96 556.21,906.35 554.95,903.3100000000001 554.52,900.0500000000001 554.52,673.29 554.52,673.29 "/>
<text x="693" y="787" text-anchor="middle" font-family="Arial" font-size="10" font-style="italic"> dummy_producer_A
</text>
<polyline fill="rgb(0, 0, 255)" stroke="rgb(21, 96, 189)" stroke-width="1" stroke-linejoin="round" stroke-dasharray="" opacity="1.0" points="633.27,660.69 636.7345,653.761 629.8055,653.761 633.27,660.69 "/>
<text x="633.27" y="670.69" text-anchor="middle" font-family="Arial" font-size="10" font-style=""> period
</text>
<polyline fill="none" stroke="rgb(0, 0, 0)" stroke-width="1" stroke-linejoin="round" stroke-dasharray="" opacity="1.0" points="831.6800000000001,841.79 914.66,841.79 914.66,877.96 997.64,877.96 "/>
<polyline fill="rgb(0, 0, 255)" stroke="rgb(21, 96, 189)" stroke-width="1" stroke-linejoin="round" stroke-dasharray="" opacity="1.0" points="831.6800000000001,841.79 831.6800000000001,845.2545 838.6089999999999,841.79 831.6800000000001,838.3255 831.6800000000001,841.79 "/>
<text x="831.6800000000001" y="841.79" text-anchor="end" font-family="Arial" font-size="10" font-style=""> A
</text>
<polyline fill="rgb(255, 215, 0)" stroke="rgb(127, 127, 127)" stroke-width="1.0498666666666665" stroke-linejoin="round" stroke-dasharray="" opacity="0.5" points="669.96,1317.27 670.39,1314.03 671.64,1311.01 673.63,1308.42 676.22,1306.43 679.24,1305.18 682.48,1304.75 682.48,1304.75 972.4,1304.75 972.4,1304.75 975.64,1305.18 978.66,1306.43 981.25,1308.42 983.24,1311.01 984.49,1314.03 984.9200000000001,1317.27 984.9200000000001,1317.27 984.9200000000001,1542.6200000000001 984.9200000000001,1542.6200000000001 984.49,1545.8600000000001 983.24,1548.88 981.25,1551.47 978.66,1553.46 975.64,1554.71 972.4,1555.14 972.4,1555.14 682.48,1555.14 682.48,1555.14 679.24,1554.71 676.22,1553.46 673.63,1551.47 671.64,1548.88 670.39,1545.8600000000001 669.96,1542.6200000000001 669.96,1317.27 669.96,1317.27 "/>
<text x="827" y="1430" text-anchor="middle" font-family="Arial" font-size="10.498666666666667" font-style="italic"> dummy_producer_B
</text>
<polyline fill="rgb(0, 0, 255)" stroke="rgb(21, 96, 189)" stroke-width="1" stroke-linejoin="round" stroke-dasharray="" opacity="1.0" points="811.71,1304.75 815.6469999999999,1296.876 807.773,1296.876 811.71,1304.75 "/>
<text x="811.71" y="1315.2486666666666" text-anchor="middle" font-family="Arial" font-size="10.498666666666667" font-style=""> period
</text>
<polyline fill="rgb(0, 0, 255)" stroke="rgb(21, 96, 189)" stroke-width="1" stroke-linejoin="round" stroke-dasharray="" opacity="1.0" points="984.9200000000001,1430.75 984.9200000000001,1434.6870000000001 992.794,1430.75 984.9200000000001,1426.8129999999999 984.9200000000001,1430.75 "/>
<text x="984.9200000000001" y="1430.75" text-anchor="end" font-family="Arial" font-size="10.498666666666667" font-style=""> B
</text>
<polyline fill="rgb(255, 215, 0)" stroke="rgb(127, 127, 127)" stroke-width="1.2755666666666667" stroke-linejoin="round" stroke-dasharray="" opacity="0.5" points="2338.51,1021.5500000000001 2338.98,1018.0 2340.35,1014.7 2342.52,1011.86 2345.36,1009.69 2348.66,1008.32 2352.21,1007.85 2352.21,1007.85 2707.48,1007.85 2707.48,1007.85 2711.03,1008.32 2714.33,1009.69 2717.17,1011.86 2719.34,1014.7 2720.71,1018.0 2721.18,1021.5500000000001 2721.18,1021.5500000000001 2721.18,1268.16 2721.18,1268.16 2720.71,1271.71 2719.34,1275.01 2717.17,1277.8500000000001 2714.33,1280.02 2711.03,1281.39 2707.48,1281.8600000000001 2707.48,1281.8600000000001 2352.21,1281.8600000000001 2352.21,1281.8600000000001 2348.66,1281.39 2345.36,1280.02 2342.52,1277.8500000000001 2340.35,1275.01 2338.98,1271.71 2338.51,1268.16 2338.51,1021.5500000000001 2338.51,1021.5500000000001 "/>
<text x="2530" y="1145" text-anchor="middle" font-family="Arial" font-size="12.755666666666666" font-style="italic"> dummy_consumer_AB
</text>
<polyline fill="rgb(0, 0, 255)" stroke="rgb(21, 96, 189)" stroke-width="1" stroke-linejoin="round" stroke-dasharray="" opacity="1.0" points="2338.51,1118.09 2328.9432500000003,1113.3066250000002 2328.9432500000003,1122.873375 2338.51,1118.09 "/>
<text x="2338.51" y="1118.09" text-anchor="start" font-family="Arial" font-size="12.755666666666666" font-style=""> A
</text>
<polyline fill="rgb(0, 0, 255)" stroke="rgb(21, 96, 189)" stroke-width="1" stroke-linejoin="round" stroke-dasharray="" opacity="1.0" points="2338.51,1181.1000000000001 2328.9432500000003,1176.3166250000002 2328.9432500000003,1185.883375 2338.51,1181.1000000000001 "/>
<text x="2338.51" y="1181.1000000000001" text-anchor="start" font-family="Arial" font-size="12.755666666666666" font-style=""> B
</text>
<polyline fill="rgb(255, 215, 0)" stroke="rgb(127, 127, 127)" stroke-width="1" stroke-linejoin="round" stroke-dasharray="" opacity="0.5" points="997.64,769.6700000000001 998.0400000000001,766.63 999.22,763.79 1001.08,761.35 1003.52,759.49 1006.36,758.3100000000001 1009.4,757.91 1009.4,757.91 1269.1100000000001,757.91 1269.1100000000001,757.91 1272.15,758.3100000000001 1274.99,759.49 1277.43,761.35 1279.29,763.79 1280.47,766.63 1280.8700000000001,769.6700000000001 1280.8700000000001,769.6700000000001 1280.8700000000001,981.37 1280.8700000000001,981.37 1280.47,984.41 1279.29,987.25 1277.43,989.69 1274.99,991.5500000000001 1272.15,992.73 1269.1100000000001,993.13 1269.1100000000001,993.13 1009.4,993.13 1009.4,993.13 1006.36,992.73 1003.52,991.5500000000001 1001.08,989.69 999.22,987.25 998.0400000000001,984.41 997.64,981.37 997.64,769.6700000000001 997.64,769.6700000000001 "/>
<text x="1139" y="876" text-anchor="middle" font-family="Arial" font-size="10" font-style="italic"> delay
</text>
<polyline fill="rgb(0, 0, 255)" stroke="rgb(21, 96, 189)" stroke-width="1" stroke-linejoin="round" stroke-dasharray="" opacity="1.0" points="997.64,877.96 990.55925,874.419625 990.55925,881.5003750000001 997.64,877.96 "/>
<text x="997.64" y="877.96" text-anchor="start" font-family="Arial" font-size="10" font-style=""> X
</text>
<polyline fill="rgb(0, 0, 255)" stroke="rgb(21, 96, 189)" stroke-width="1" stroke-linejoin="round" stroke-dasharray="" opacity="1.0" points="1280.8700000000001,877.96 1280.8700000000001,881.5003750000001 1287.95075,877.96 1280.8700000000001,874.419625 1280.8700000000001,877.96 "/>
<text x="1280.8700000000001" y="877.96" text-anchor="end" font-family="Arial" font-size="10" font-style=""> Y
</text>
</svg>
